# cube.obj
g cube

mtllib skybox.mtl

v  -0.5  -0.5  -0.5
v  -0.5  -0.5  0.5
v  -0.5  0.5  -0.5
v  -0.5  0.5  0.5
v  0.5  -0.5  -0.5
v  0.5  -0.5  1.0
v  0.5  0.5  -0.5
v  0.5  0.5  0.5

vn  0.0  0.0  1.0
vn  0.0  0.0 -1.0
vn  0.0  1.0  0.0
vn  0.0 -1.0  0.0
vn  1.0  0.0  0.0
vn -1.0  0.0  0.0

# Bottom plane
vt 0.2500000000 0.66634114583333333333333333333333
vt 0.5000000000 0.66634114583333333333333333333333
vt 0.5000000000 1.00000000000000000000000000000000
vt 0.2500000000 1.00000000000000000000000000000000

# Left Plane
vt 0.0000000000 0.33333333333333333333333333333333
vt 0.2500000000 0.33333333333333333333333333333333
vt 0.2500000000 0.66634114583333333333333333333333
vt 0.0000000000 0.66634114583333333333333333333333

# Front Plane
vt 0.2500000000 0.33333333333333333333333333333333
vt 0.5000000000 0.33333333333333333333333333333333
vt 0.5000000000 0.66634114583333333333333333333333
vt 0.2500000000 0.66634114583333333333333333333333

# Top Plane
vt 0.2500000000 0.00000000000000000000000000000000
vt 0.5000000000 0.00000000000000000000000000000000
vt 0.5000000000 0.33333333333333333333333333333333
vt 0.2500000000 0.33333333333333333333333333333333

# Right Plane
vt 0.5000000000 0.33333333333333333333333333333333
vt 0.7500000000 0.33333333333333333333333333333333
vt 0.7500000000 0.66634114583333333333333333333333
vt 0.5000000000 0.66634114583333333333333333333333

# Back Plane
vt 0.7500000000 0.33333333333333333333333333333333
vt 1.0000000000 0.33333333333333333333333333333333
vt 1.0000000000 0.66634114583333333333333333333333
vt 0.7500000000 0.66634114583333333333333333333333

usemtl sky

f  1/23/2  7/21/2  5/24/2
f  1/23/2  3/22/2  7/21/2 
f  1/8/6  4/6/6  3/5/6 
f  1/8/6  2/7/6  4/6/6 
f  3/13/3  8/15/3  7/14/3 
f  3/13/3  4/16/3  8/15/3 
f  5/19/5  7/18/5  8/17/5 
f  5/19/5  8/17/5  6/20/5 
f  1/4/4  5/3/4  6/2/4 
f  1/4/4  6/2/4  2/1/4 
f  2/12/1  6/11/1  8/10/1 
f  2/12/1  8/10/1  4/9/1 