# Blender v2.79 (sub 0) OBJ File: 'wall.blend'
# www.blender.org
mtllib wall.mtl
o Cube
v 0.967391 4.210572 -0.072818
v 0.967391 4.210572 0.090577
v -1.032609 4.210572 0.090576
v -1.032608 4.210572 -0.072818
v 0.967392 -0.038635 -0.072818
v 0.967391 -0.038635 0.090577
v -1.032609 -0.038635 0.090576
v -1.032609 -0.038635 -0.072818
vt -0.000011 0.432262
vt -0.000066 0.460635
vt 1.000529 0.459159
vt 0.997257 0.412771
vt 0.001371 0.416308
vt -0.002228 0.453397
vt 0.653398 0.998522
vt 0.648232 0.000417
vt 0.520064 -0.000389
vt 0.000572 -0.000864
vt -0.003278 0.998978
vt 0.999169 0.999278
vt 0.791431 0.994893
vt 0.788346 -0.000570
vt 0.659126 0.000000
vt -0.000113 -0.000093
vt -0.000218 1.000054
vt 1.000029 0.999983
vt 1.000000 0.432384
vt 0.995886 0.454310
vt 0.526079 1.002050
vt 0.999053 -0.001335
vt 0.666667 0.993980
vt 1.000134 -0.000037
vn 0.0000 1.0000 0.0000
vn 0.0000 -1.0000 0.0000
vn 1.0000 0.0000 0.0000
vn -0.0000 0.0000 1.0000
vn -1.0000 0.0000 -0.0000
vn 0.0000 -0.0000 -1.0000
usemtl Material
s off
f 2/1/1 1/2/1 4/3/1
f 8/4/2 5/5/2 6/6/2
f 5/7/3 1/8/3 2/9/3
f 6/10/4 2/11/4 3/12/4
f 7/13/5 3/14/5 4/15/5
f 1/16/6 5/17/6 8/18/6
f 2/1/1 4/3/1 3/19/1
f 8/4/2 6/6/2 7/20/2
f 5/7/3 2/9/3 6/21/3
f 6/10/4 3/12/4 7/22/4
f 7/13/5 4/15/5 8/23/5
f 1/16/6 8/18/6 4/24/6
