# This file uses centimeters as units for non-parametric coordinates.

mtllib wall3.mtl
g default
v -0.500000 -0.000159 0.050000
v 0.500000 -0.000159 0.050000
v -0.500000 1.999841 0.050000
v 0.500000 1.999841 0.050000
v -0.500000 1.999841 -0.050000
v 0.500000 1.999841 -0.050000
v -0.500000 -0.000159 -0.050000
v 0.500000 -0.000159 -0.050000
vt 0.132401 0.010882
vt 0.977547 0.010882
vt 0.977547 0.963164
vt 0.132401 0.963164
vt 0.131491 0.010723
vt 0.976636 0.010723
vt 0.976636 0.962977
vt 0.131491 0.962977
vt 0.068581 0.474136
vt 0.095412 0.474136
vt 0.095412 0.927745
vt 0.068581 0.927745
vt 0.041387 0.474137
vt 0.068218 0.474137
vt 0.068218 0.927746
vt 0.041387 0.927746
vt 0.036497 0.016536
vt 0.063329 0.016536
vt 0.063329 0.470145
vt 0.036497 0.470145
vt 0.063715 0.016536
vt 0.090547 0.016536
vt 0.090547 0.470145
vt 0.063715 0.470145
vn 0.000000 0.000000 1.000000
vn 0.000000 0.000000 1.000000
vn 0.000000 0.000000 1.000000
vn 0.000000 0.000000 1.000000
vn 0.000000 1.000000 0.000000
vn 0.000000 1.000000 0.000000
vn 0.000000 1.000000 0.000000
vn 0.000000 1.000000 0.000000
vn 0.000000 0.000000 -1.000000
vn 0.000000 0.000000 -1.000000
vn 0.000000 0.000000 -1.000000
vn 0.000000 0.000000 -1.000000
vn 0.000000 -1.000000 0.000000
vn 0.000000 -1.000000 0.000000
vn 0.000000 -1.000000 0.000000
vn 0.000000 -1.000000 0.000000
vn 1.000000 0.000000 0.000000
vn 1.000000 0.000000 0.000000
vn 1.000000 0.000000 0.000000
vn 1.000000 0.000000 0.000000
vn -1.000000 0.000000 0.000000
vn -1.000000 0.000000 0.000000
vn -1.000000 0.000000 0.000000
vn -1.000000 0.000000 0.000000
s off
g pCube1
usemtl initialShadingGroup
f 1/1/1 2/2/2 4/3/3
f 4/3/3 3/4/4 1/1/1
f 3/17/5 4/18/6 6/19/7
f 6/19/7 5/20/8 3/17/5
f 5/5/9 6/6/10 8/7/11
f 8/7/11 7/8/12 5/5/9 
f 7/21/13 8/22/14 2/23/15
f 2/23/15 1/24/16 7/21/13 
f 2/9/17 8/10/18 6/11/19
f 6/11/19 4/12/20 2/9/17
f 7/13/21 1/14/22 3/15/23
f 3/15/23 5/16/24 7/13/21
