# This file uses centimeters as units for non-parametric coordinates.

mtllib wall3.mtl
g default
v 0.500000 1.688472 0.047306
v -0.500000 1.688472 0.047306
v 0.500000 1.032120 0.047306
v -0.500000 1.032120 0.047306
vt 0.375000 0.129384
vt 0.625000 0.129384
vt 0.625000 0.211428
vt 0.375000 0.211428
vn 0.000000 0.000000 1.000000
vn 0.000000 0.000000 1.000000
vn 0.000000 0.000000 1.000000
vn 0.000000 0.000000 1.000000
s 1
g polySurface1 pCube1
usemtl initialShadingGroup
f 4/1/1 3/2/2 2/4/3
f 2/4/3 3/2/2 1/3/4
